<svg width="144" height="144" viewBox="0 0 144 144" fill="none" xmlns="http://www.w3.org/2000/svg">
<g clip-path="url(#clip0_691_6429)">
<path d="M24 30H36" stroke="#8E8E93" stroke-width="12" stroke-linecap="round" stroke-linejoin="round"/>
<path d="M30 24V36" stroke="#8E8E93" stroke-width="12" stroke-linecap="round" stroke-linejoin="round"/>
<path d="M69 24L66 36" stroke="#8E8E93" stroke-width="12" stroke-linecap="round" stroke-linejoin="round"/>
<path d="M108 30H120" stroke="#8E8E93" stroke-width="12" stroke-linecap="round" stroke-linejoin="round"/>
<path d="M114 24V36" stroke="#8E8E93" stroke-width="12" stroke-linecap="round" stroke-linejoin="round"/>
<path d="M90 54L84 60" stroke="#8E8E93" stroke-width="12" stroke-linecap="round" stroke-linejoin="round"/>
<path d="M108 78L120 75" stroke="#8E8E93" stroke-width="12" stroke-linecap="round" stroke-linejoin="round"/>
<path d="M108 114H120" stroke="#8E8E93" stroke-width="12" stroke-linecap="round" stroke-linejoin="round"/>
<path d="M114 108V120" stroke="#8E8E93" stroke-width="12" stroke-linecap="round" stroke-linejoin="round"/>
<path d="M83.9988 99.108L44.8908 60L18.5508 117.48C18.0302 118.596 17.8656 119.845 18.0794 121.058C18.2931 122.271 18.8749 123.388 19.7456 124.259C20.6164 125.13 21.7341 125.712 22.9468 125.925C24.1596 126.139 25.4088 125.975 26.5248 125.454L83.9988 99.108Z" stroke="#8E8E93" stroke-width="12" stroke-linecap="round" stroke-linejoin="round"/>
</g>
<defs>
<clipPath id="clip0_691_6429">
<rect width="144" height="144" fill="white"/>
</clipPath>
</defs>
</svg>
