<svg width="150" height="43" viewBox="0 0 150 43" fill="none" xmlns="http://www.w3.org/2000/svg">
<path fill-rule="evenodd" clip-rule="evenodd" d="M19.417 8.78625C21.4502 6.53932 24.4246 5.12207 27.7386 5.12207C33.8665 5.12207 38.8342 9.968 38.8342 15.9459C38.8342 16.8145 38.7293 17.6593 38.5311 18.4688C37.214 25.0362 30.8271 32.3128 19.3708 40.2992C6.45737 31.4051 0 23.2994 0 15.9826V15.9462C0 9.96843 4.96763 5.12244 11.0956 5.12244C14.4096 5.12244 17.384 6.53969 19.4172 8.78662L19.417 8.78625Z" fill="url(#paint0_linear_671_8477)"/>
<path d="M27.841 0L5.93677 22.8251H19.979L8.72425 42.9639L35.1522 16.4967H20.4502L27.841 0Z" fill="url(#paint1_linear_671_8477)"/>
<path d="M27.841 0L5.93677 22.8251H19.979L8.72425 42.9639L35.1522 16.4967H20.4502L27.841 0Z" fill="url(#paint2_linear_671_8477)" fill-opacity="0.6"/>
<path d="M24.8921 4.53088L10.78 20.9692H23.4307L12.3672 38.2771L29.8404 18.2522H17.3584L24.8921 4.53088Z" fill="#FFF937"/>
<path d="M46.7622 30.0517H50.1188V20.4092H61.1038V30.0517H64.4604V7.95947H61.1038V17.5409H50.1188V7.95947H46.7622V30.0517Z" fill="#EE8223"/>
<path d="M74.5923 30.3874C78.2388 30.3874 80.7867 28.587 81.519 25.9018H78.2235C77.6742 26.9087 76.4689 27.7021 74.6228 27.7021C71.9071 27.7021 70.0457 25.917 69.9542 22.7588H81.7326V21.5993C81.7326 15.6033 78.1472 13.2689 74.3787 13.2689C69.7558 13.2689 66.7044 16.7781 66.7197 21.8739C66.7044 27.0155 69.7101 30.3874 74.5923 30.3874ZM69.9694 20.3177C70.1067 17.9834 71.8003 15.9389 74.4092 15.9542C76.8961 15.9389 78.5286 17.8003 78.5286 20.3177H69.9694Z" fill="#EE8223"/>
<path d="M82.9544 25.383C82.9391 28.6175 85.3955 30.4179 88.5385 30.4179C91.2848 30.4179 92.8105 29.0295 93.4513 27.7937H93.5733V30.0517H96.7468V19.0361C96.7315 14.2301 92.8868 13.2689 90.2473 13.2689C86.3262 13.2689 83.763 15.2523 83.4731 17.9986H86.7076C87.0433 16.7781 88.2028 15.8931 90.1252 15.8931C92.3375 15.8931 93.497 16.9764 93.4818 18.853L93.497 20.1804C92.7342 20.2109 90.2473 20.3482 89.1488 20.4092C86.1584 20.6228 82.9391 21.5993 82.9544 25.383ZM86.1279 25.4136C86.1279 23.781 87.4705 22.9724 89.6065 22.8199C90.3846 22.7741 92.7494 22.6063 93.497 22.5605L93.5123 24.0709C93.5123 26.0391 91.9256 27.8089 89.2708 27.8242C87.44 27.8089 86.1279 27.0003 86.1279 25.4136Z" fill="#EE8223"/>
<path d="M99.4333 30.0517H102.698V19.9515C102.698 17.785 104.377 16.2135 106.635 16.2288C107.306 16.2135 108.069 16.3509 108.343 16.4119V13.2994C108.008 13.2689 107.367 13.2232 106.97 13.2384C105.033 13.2232 103.37 14.3369 102.759 16.1067H102.576V13.4825H99.4333V30.0517Z" fill="#EE8223"/>
<path d="M118.262 13.4825H114.875V9.51569H111.64V13.4825H109.199V16.0762H111.64V25.8408C111.61 28.8617 113.913 30.2653 116.461 30.2653C117.362 30.2653 118.063 30.2043 118.506 30.1432V27.3054C118.048 27.3512 117.331 27.397 116.858 27.397C115.805 27.3817 114.89 27.0461 114.875 25.1694V16.0762H118.262V13.4825Z" fill="#EE8223"/>
<path d="M121.009 30.0517H128.821C133.245 30.0517 135.458 27.6716 135.473 24.315C135.458 21.05 133.367 18.9446 131.14 18.792V18.6394C133.169 18.1054 134.603 16.3814 134.588 13.6656C134.603 10.2938 132.406 7.95947 128.302 7.95947H121.009V30.0517ZM122.596 28.587V19.5548H128.882C131.872 19.5396 133.917 21.584 133.917 24.2845C133.917 26.8172 132.147 28.6023 128.821 28.587H122.596ZM122.596 18.1207V9.39364H128.302C131.369 9.40889 133.062 11.0872 133.062 13.6961C133.062 16.183 131.415 18.1207 128.668 18.1207H122.596Z" fill="#EE8223"/>
<path d="M138.403 30.0517H139.96V13.4825H138.403V30.0517ZM137.976 9.42415C137.992 10.0649 138.526 10.5837 139.197 10.5837C139.838 10.5837 140.372 10.0649 140.387 9.42415C140.372 8.79861 139.838 8.27987 139.197 8.26461C138.526 8.27987 137.992 8.79861 137.976 9.42415Z" fill="#EE8223"/>
<path d="M149.573 13.4825H146.094V9.51569H144.569V13.4825H142.127V14.8252H144.569V26.2985C144.569 28.8922 146.582 30.3111 148.688 30.3263C149.313 30.3111 149.695 30.2806 150 30.2348V28.8006C149.68 28.8159 149.13 28.8311 148.81 28.8311C147.391 28.8311 146.109 28.0225 146.094 25.9933V14.8252H149.573V13.4825Z" fill="#EE8223"/>
<path d="M49.4543 42.6633C51.8619 42.6633 53.29 41.1851 53.2955 38.7322C53.29 36.2902 51.8619 34.8229 49.4981 34.8229H46.7622V42.6633H49.4543ZM48.1849 41.4396V36.0466H49.4215C51.0357 36.0412 51.8728 36.9346 51.8728 38.7322C51.8728 40.5407 51.0357 41.445 49.3777 41.4396H48.1849Z" fill="#8E8E93"/>
<path d="M56.813 42.7824C58.553 42.7824 59.6638 41.5641 59.6583 39.7502C59.6638 37.92 58.553 36.7072 56.813 36.7072C55.0785 36.7072 53.9677 37.92 53.9677 39.7502C53.9677 41.5641 55.0785 42.7824 56.813 42.7824ZM55.3794 39.7394C55.3794 38.6619 55.8554 37.7955 56.8239 37.8009C57.776 37.7955 58.2521 38.6619 58.2466 39.7394C58.2521 40.8169 57.776 41.6778 56.8239 41.6778C55.8554 41.6778 55.3794 40.8169 55.3794 39.7394Z" fill="#8E8E93"/>
<path d="M63.0664 42.7824C64.5602 42.7824 65.5123 41.8998 65.6162 40.6599H64.2811C64.1553 41.2934 63.6957 41.6507 63.0773 41.6561C62.2019 41.6507 61.6328 40.9306 61.6328 39.7177C61.6328 38.5319 62.2128 37.8172 63.0773 37.8118C63.7558 37.8172 64.1717 38.2449 64.2811 38.808H65.6162C65.5178 37.541 64.5055 36.7072 63.0664 36.7072C61.3264 36.7072 60.2211 37.9471 60.2211 39.7502C60.2211 41.5262 61.2936 42.7824 63.0664 42.7824Z" fill="#8E8E93"/>
<path d="M69.3636 36.783H68.1926V35.3752H66.8028V36.783H65.9492V37.8442H66.8028V41.1255C66.7918 42.2301 67.6017 42.7445 68.6522 42.7391C69.0079 42.7445 69.276 42.712 69.4402 42.6849V41.5587C69.2651 41.5695 68.9915 41.5858 68.8273 41.5803C68.4771 41.5749 68.1926 41.4612 68.1926 40.8981V37.8442H69.3636V36.783Z" fill="#8E8E93"/>
<path d="M72.695 42.7824C74.4351 42.7824 75.5458 41.5641 75.5404 39.7502C75.5458 37.92 74.4351 36.7072 72.695 36.7072C70.9605 36.7072 69.8497 37.92 69.8497 39.7502C69.8497 41.5641 70.9605 42.7824 72.695 42.7824ZM71.2614 39.7394C71.2614 38.6619 71.7375 37.7955 72.706 37.8009C73.6581 37.7955 74.1341 38.6619 74.1286 39.7394C74.1341 40.8169 73.6581 41.6778 72.706 41.6778C71.7375 41.6778 71.2614 40.8169 71.2614 39.7394Z" fill="#8E8E93"/>
<path d="M76.3548 42.6633H77.7556V39.1979C77.7556 38.4561 78.3247 37.9255 79.1017 37.92C79.3315 37.9255 79.6215 37.9634 79.7473 38.0067V36.7288C79.616 36.7126 79.3971 36.6963 79.2439 36.6963C78.5599 36.6963 77.9909 37.0808 77.7775 37.7576H77.7118V36.783H76.3548V42.6633Z" fill="#8E8E93"/>
<path d="M82.2033 34.8337H80.8135L80.2444 37.8659H81.2841L82.2033 34.8337Z" fill="#8E8E93"/>
<path d="M85.6114 38.4615H86.9356C86.8316 37.3948 85.9561 36.7072 84.5389 36.7072C83.0889 36.7072 82.1368 37.4165 82.1423 38.5048C82.1368 39.3441 82.7114 39.918 83.8167 40.14L84.7687 40.3458C85.3597 40.4703 85.6278 40.6869 85.6333 41.028C85.6278 41.4666 85.1901 41.7374 84.517 41.732C83.8659 41.7374 83.4719 41.4883 83.3899 40.9847H81.9672C82.1149 42.111 83.0068 42.7824 84.517 42.7824C86.071 42.7824 87.0505 42.0135 87.0559 40.9089C87.0505 40.0642 86.5033 39.5499 85.3816 39.3062L84.3748 39.1004C83.7729 38.9597 83.5266 38.7322 83.5321 38.429C83.5266 38.0283 83.9644 37.7305 84.5608 37.736C85.1518 37.7305 85.5238 38.0175 85.6114 38.4615Z" fill="#8E8E93"/>
<path d="M90.3045 42.6633H91.7272V40.0101H93.2593C95.0868 40.0101 96.0663 38.9218 96.0717 37.4219C96.0663 35.9166 95.0978 34.8229 93.2811 34.8229H90.3045V42.6633ZM91.7272 38.8514V36.0033H93.0623C94.1347 36.0033 94.6162 36.5826 94.6162 37.4219C94.6162 38.2503 94.1347 38.846 93.0623 38.8514H91.7272Z" fill="#8E8E93"/>
<path d="M99.3923 42.7824C101.132 42.7824 102.243 41.5641 102.238 39.7502C102.243 37.92 101.132 36.7072 99.3923 36.7072C97.6577 36.7072 96.5469 37.92 96.5469 39.7502C96.5469 41.5641 97.6577 42.7824 99.3923 42.7824ZM97.9587 39.7394C97.9587 38.6619 98.4347 37.7955 99.4032 37.8009C100.355 37.7955 100.831 38.6619 100.826 39.7394C100.831 40.8169 100.355 41.6778 99.4032 41.6778C98.4347 41.6778 97.9587 40.8169 97.9587 39.7394Z" fill="#8E8E93"/>
<path d="M103.052 42.6633H104.453V39.1979C104.453 38.4561 105.022 37.9255 105.799 37.92C106.029 37.9255 106.319 37.9634 106.445 38.0067V36.7288C106.313 36.7126 106.094 36.6963 105.941 36.6963C105.257 36.6963 104.688 37.0808 104.475 37.7576H104.409V36.783H103.052V42.6633Z" fill="#8E8E93"/>
<path d="M110.301 36.783H109.13V35.3752H107.741V36.783H106.887V37.8442H107.741V41.1255C107.73 42.2301 108.539 42.7445 109.59 42.7391C109.946 42.7445 110.214 42.712 110.378 42.6849V41.5587C110.203 41.5695 109.929 41.5858 109.765 41.5803C109.415 41.5749 109.13 41.4612 109.13 40.8981V37.8442H110.301V36.783Z" fill="#8E8E93"/>
<path d="M110.831 41.0064C110.831 42.1705 111.69 42.7824 112.823 42.7824C113.759 42.7824 114.311 42.3492 114.574 41.8511H114.618V42.6633H115.953V38.7322C115.953 37.1674 114.651 36.7072 113.523 36.7072C112.035 36.7072 111.127 37.4598 111.028 38.4615H112.374C112.484 38.0392 112.867 37.7576 113.491 37.7576C114.185 37.7576 114.563 38.0933 114.563 38.6781L114.568 39.1492C114.306 39.16 113.458 39.1979 113.042 39.2304C111.942 39.3008 110.831 39.6852 110.831 41.0064ZM112.177 40.9956C112.177 40.4812 112.599 40.205 113.261 40.1509C113.54 40.1292 114.317 40.0805 114.568 40.0697L114.574 40.5516C114.574 41.2121 114.032 41.7644 113.184 41.7644C112.599 41.7644 112.177 41.5045 112.177 40.9956Z" fill="#8E8E93"/>
<path d="M118.398 34.8229H116.997V42.6633H118.398V34.8229Z" fill="#8E8E93"/>
<defs>
<linearGradient id="paint0_linear_671_8477" x1="34.5273" y1="-1.09339" x2="5.85871" y2="43.5891" gradientUnits="userSpaceOnUse">
<stop stop-color="#FF9E32"/>
<stop offset="1" stop-color="#C84800"/>
</linearGradient>
<linearGradient id="paint1_linear_671_8477" x1="29.4976" y1="-1.56232" x2="7.33508" y2="42.8146" gradientUnits="userSpaceOnUse">
<stop stop-color="#FFB445"/>
<stop offset="1" stop-color="#FF7A00"/>
</linearGradient>
<linearGradient id="paint2_linear_671_8477" x1="2.94359" y1="23.966" x2="37.3648" y2="16.5466" gradientUnits="userSpaceOnUse">
<stop offset="0.161458" stop-color="white" stop-opacity="0"/>
<stop offset="0.520833" stop-color="#FFE600"/>
<stop offset="0.791667" stop-color="white" stop-opacity="0"/>
</linearGradient>
</defs>
</svg>
