<svg width="302" height="87" viewBox="0 0 302 87" fill="none" xmlns="http://www.w3.org/2000/svg">
<path fill-rule="evenodd" clip-rule="evenodd" d="M39.0315 17.6619C43.1185 13.1452 49.0977 10.2963 55.7593 10.2963C68.0775 10.2963 78.0634 20.0374 78.0634 32.054C78.0634 33.8001 77.8526 35.4983 77.4541 37.1255C74.8066 50.3271 61.9677 64.9543 38.9387 81.0084C12.9804 63.1297 0 46.8358 0 32.1277V32.0547C0 20.0383 9.98579 10.297 22.3041 10.297C28.9659 10.297 34.9449 13.1459 39.0319 17.6626L39.0315 17.6619Z" fill="url(#paint0_linear_526_5820)"/>
<path d="M55.9656 0L11.9342 45.8825H40.1616L17.5375 86.3648L70.6623 33.1611H41.1088L55.9656 0Z" fill="url(#paint1_linear_526_5820)"/>
<path d="M55.9656 0L11.9342 45.8825H40.1616L17.5375 86.3648L70.6623 33.1611H41.1088L55.9656 0Z" fill="url(#paint2_linear_526_5820)" fill-opacity="0.6"/>
<path d="M50.0375 9.10791L21.6698 42.1518H47.0998L24.8604 76.9436L59.9844 36.69H34.8934L50.0375 9.10791Z" fill="#FFF937"/>
<path d="M94 60.4092H100.747V41.0262H122.829V60.4092H129.576V16H122.829V35.2603H100.747V16H94V60.4092Z" fill="#EE8223"/>
<path d="M149.943 61.0839C157.273 61.0839 162.395 57.4649 163.867 52.0671H157.243C156.139 54.0913 153.716 55.6861 150.005 55.6861C144.546 55.6861 140.804 52.0978 140.62 45.7493H164.297V43.4184C164.297 31.3653 157.089 26.6729 149.514 26.6729C140.221 26.6729 134.087 33.7269 134.118 43.9704C134.087 54.306 140.129 61.0839 149.943 61.0839ZM140.651 40.8422C140.927 36.1497 144.331 32.0401 149.575 32.0707C154.574 32.0401 157.856 35.7817 157.856 40.8422H140.651Z" fill="#EE8223"/>
<path d="M166.753 51.0244C166.722 57.5263 171.66 61.1453 177.978 61.1453C183.498 61.1453 186.565 58.3543 187.853 55.8701H188.098V60.4092H194.478V38.2659C194.447 28.6051 186.718 26.6729 181.412 26.6729C173.53 26.6729 168.378 30.6599 167.795 36.1804H174.297C174.972 33.7269 177.303 31.9481 181.167 31.9481C185.614 31.9481 187.945 34.1256 187.914 37.8979L187.945 40.5661C186.412 40.6275 181.412 40.9035 179.204 41.0262C173.193 41.4555 166.722 43.4184 166.753 51.0244ZM173.132 51.0857C173.132 47.8041 175.831 46.1786 180.124 45.8719C181.689 45.7799 186.442 45.4426 187.945 45.3505L187.976 48.3868C187.976 52.3432 184.786 55.9008 179.45 55.9315C175.769 55.9008 173.132 54.2753 173.132 51.0857Z" fill="#EE8223"/>
<path d="M199.878 60.4092H206.441V40.1061C206.441 35.751 209.815 32.5921 214.354 32.6228C215.703 32.5921 217.237 32.8681 217.789 32.9908V26.7343C217.114 26.6729 215.826 26.5809 215.029 26.6116C211.134 26.5809 207.791 28.8198 206.564 32.3774H206.196V27.1023H199.878V60.4092Z" fill="#EE8223"/>
<path d="M237.726 27.1023H230.918V19.1283H224.416V27.1023H219.509V32.3161H224.416V51.9445C224.354 58.017 228.986 60.8386 234.107 60.8386C235.917 60.8386 237.328 60.7159 238.217 60.5932V54.8887C237.297 54.9807 235.855 55.0727 234.905 55.0727C232.789 55.0421 230.948 54.3673 230.918 50.595V32.3161H237.726V27.1023Z" fill="#EE8223"/>
<path d="M243.249 60.4092H258.952C267.846 60.4092 272.293 55.6248 272.324 48.8775C272.293 42.3143 268.091 38.0819 263.614 37.7752V37.4685C267.693 36.3951 270.576 32.9295 270.545 27.4703C270.576 20.6924 266.159 16 257.909 16H243.249V60.4092ZM246.439 57.4649V39.3087H259.075C265.086 39.278 269.195 43.3877 269.195 48.8162C269.195 53.9073 265.638 57.4956 258.952 57.4649H246.439ZM246.439 36.4258V18.8829H257.909C264.074 18.9136 267.478 22.2872 267.478 27.5317C267.478 32.5308 264.166 36.4258 258.645 36.4258H246.439Z" fill="#EE8223"/>
<path d="M278.215 60.4092H281.343V27.1023H278.215V60.4092ZM277.356 18.9443C277.387 20.2324 278.46 21.2751 279.81 21.2751C281.098 21.2751 282.171 20.2324 282.202 18.9443C282.171 17.6868 281.098 16.6441 279.81 16.6134C278.46 16.6441 277.387 17.6868 277.356 18.9443Z" fill="#EE8223"/>
<path d="M300.667 27.1023H293.675V19.1283H290.608V27.1023H285.701V29.8012H290.608V52.8645C290.608 58.0783 294.656 60.9306 298.888 60.9612C300.146 60.9306 300.912 60.8692 301.526 60.7772V57.8943C300.882 57.925 299.778 57.9556 299.134 57.9556C296.281 57.9556 293.705 56.3302 293.675 52.2511V29.8012H300.667V27.1023Z" fill="#EE8223"/>
<path d="M99.4116 85.7605C104.251 85.7605 107.122 82.7891 107.133 77.8585C107.122 72.9497 104.251 70 99.4996 70H94V85.7605H99.4116ZM96.8598 83.3007V72.4599H99.3456C102.59 72.449 104.273 74.2449 104.273 77.8585C104.273 81.4939 102.59 83.3116 99.2576 83.3007H96.8598Z" fill="#8E8E93"/>
<path d="M114.204 86C117.702 86 119.934 83.551 119.923 79.9048C119.934 76.2259 117.702 73.7878 114.204 73.7878C110.717 73.7878 108.484 76.2259 108.484 79.9048C108.484 83.551 110.717 86 114.204 86ZM111.322 79.883C111.322 77.717 112.279 75.9755 114.226 75.9864C116.14 75.9755 117.097 77.717 117.086 79.883C117.097 82.049 116.14 83.7796 114.226 83.7796C112.279 83.7796 111.322 82.049 111.322 79.883Z" fill="#8E8E93"/>
<path d="M126.774 86C129.777 86 131.691 84.2259 131.9 81.7333H129.216C128.963 83.0068 128.039 83.7252 126.796 83.7361C125.036 83.7252 123.892 82.2776 123.892 79.8395C123.892 77.4558 125.058 76.019 126.796 76.0082C128.16 76.019 128.996 76.8789 129.216 78.0109H131.9C131.702 75.4639 129.667 73.7878 126.774 73.7878C123.277 73.7878 121.055 76.2803 121.055 79.9048C121.055 83.4748 123.211 86 126.774 86Z" fill="#8E8E93"/>
<path d="M139.433 73.9401H137.079V71.1102H134.285V73.9401H132.569V76.0735H134.285V82.6694C134.263 84.8898 135.891 85.9238 138.003 85.9129C138.718 85.9238 139.257 85.8585 139.587 85.8041V83.5401C139.235 83.5619 138.685 83.5946 138.355 83.5837C137.651 83.5728 137.079 83.3442 137.079 82.2122V76.0735H139.433V73.9401Z" fill="#8E8E93"/>
<path d="M146.129 86C149.627 86 151.86 83.551 151.849 79.9048C151.86 76.2259 149.627 73.7878 146.129 73.7878C142.643 73.7878 140.41 76.2259 140.41 79.9048C140.41 83.551 142.643 86 146.129 86ZM143.248 79.883C143.248 77.717 144.205 75.9755 146.151 75.9864C148.065 75.9755 149.022 77.717 149.011 79.883C149.022 82.049 148.065 83.7796 146.151 83.7796C144.205 83.7796 143.248 82.049 143.248 79.883Z" fill="#8E8E93"/>
<path d="M153.486 85.7605H156.302V78.7946C156.302 77.3034 157.446 76.2367 159.008 76.2259C159.47 76.2367 160.053 76.3129 160.306 76.4V73.8313C160.042 73.7986 159.602 73.766 159.294 73.766C157.919 73.766 156.775 74.5388 156.346 75.8993H156.214V73.9401H153.486V85.7605Z" fill="#8E8E93"/>
<path d="M165.243 70.0218H162.449L161.305 76.117H163.395L165.243 70.0218Z" fill="#8E8E93"/>
<path d="M172.094 77.3143H174.755C174.546 75.1701 172.786 73.7878 169.938 73.7878C167.023 73.7878 165.109 75.2136 165.12 77.4014C165.109 79.0884 166.264 80.2422 168.486 80.6884L170.4 81.102C171.588 81.3524 172.127 81.7878 172.138 82.4735C172.127 83.3551 171.247 83.8993 169.894 83.8884C168.585 83.8993 167.793 83.3986 167.628 82.3864H164.768C165.065 84.6503 166.858 86 169.894 86C173.017 86 174.986 84.4544 174.997 82.234C174.986 80.5361 173.886 79.502 171.632 79.0122L169.608 78.5986C168.398 78.3156 167.903 77.8585 167.914 77.249C167.903 76.4435 168.783 75.8449 169.982 75.8558C171.17 75.8449 171.918 76.4218 172.094 77.3143Z" fill="#8E8E93"/>
<path d="M181.528 85.7605H184.387V80.4272H187.467C191.141 80.4272 193.11 78.2395 193.121 75.2245C193.11 72.1986 191.163 70 187.511 70H181.528V85.7605ZM184.387 78.098V72.3728H187.071C189.227 72.3728 190.195 73.5374 190.195 75.2245C190.195 76.8898 189.227 78.0871 187.071 78.098H184.387Z" fill="#8E8E93"/>
<path d="M199.795 86C203.293 86 205.526 83.551 205.515 79.9048C205.526 76.2259 203.293 73.7878 199.795 73.7878C196.309 73.7878 194.076 76.2259 194.076 79.9048C194.076 83.551 196.309 86 199.795 86ZM196.914 79.883C196.914 77.717 197.871 75.9755 199.817 75.9864C201.731 75.9755 202.688 77.717 202.677 79.883C202.688 82.049 201.731 83.7796 199.817 83.7796C197.871 83.7796 196.914 82.049 196.914 79.883Z" fill="#8E8E93"/>
<path d="M207.152 85.7605H209.968V78.7946C209.968 77.3034 211.112 76.2367 212.674 76.2259C213.136 76.2367 213.719 76.3129 213.972 76.4V73.8313C213.708 73.7986 213.268 73.766 212.96 73.766C211.585 73.766 210.441 74.5388 210.012 75.8993H209.88V73.9401H207.152V85.7605Z" fill="#8E8E93"/>
<path d="M221.725 73.9401H219.371V71.1102H216.577V73.9401H214.861V76.0735H216.577V82.6694C216.555 84.8898 218.183 85.9238 220.295 85.9129C221.01 85.9238 221.549 85.8585 221.879 85.8041V83.5401C221.527 83.5619 220.977 83.5946 220.647 83.5837C219.943 83.5728 219.371 83.3442 219.371 82.2122V76.0735H221.725V73.9401Z" fill="#8E8E93"/>
<path d="M222.79 82.4299C222.79 84.7701 224.517 86 226.793 86C228.674 86 229.785 85.1293 230.313 84.1279H230.401V85.7605H233.085V77.8585C233.085 74.7129 230.467 73.7878 228.201 73.7878C225.21 73.7878 223.384 75.3007 223.186 77.3143H225.892C226.112 76.4653 226.881 75.8993 228.135 75.8993C229.532 75.8993 230.291 76.5741 230.291 77.7497L230.302 78.6966C229.774 78.7184 228.069 78.7946 227.233 78.8599C225.023 79.0014 222.79 79.7741 222.79 82.4299ZM225.496 82.4082C225.496 81.3741 226.343 80.819 227.673 80.7102C228.234 80.6667 229.796 80.5687 230.302 80.5469L230.313 81.5156C230.313 82.8435 229.224 83.9537 227.519 83.9537C226.343 83.9537 225.496 83.4313 225.496 82.4082Z" fill="#8E8E93"/>
<path d="M238 70H235.184V85.7605H238V70Z" fill="#8E8E93"/>
<defs>
<linearGradient id="paint0_linear_526_5820" x1="69.4059" y1="-2.19788" x2="11.777" y2="87.6215" gradientUnits="userSpaceOnUse">
<stop stop-color="#FF9E32"/>
<stop offset="1" stop-color="#C84800"/>
</linearGradient>
<linearGradient id="paint1_linear_526_5820" x1="59.2956" y1="-3.14054" x2="14.745" y2="86.0648" gradientUnits="userSpaceOnUse">
<stop stop-color="#FFB445"/>
<stop offset="1" stop-color="#FF7A00"/>
</linearGradient>
<linearGradient id="paint2_linear_526_5820" x1="5.9174" y1="48.1759" x2="75.11" y2="33.2615" gradientUnits="userSpaceOnUse">
<stop offset="0.161458" stop-color="white" stop-opacity="0"/>
<stop offset="0.520833" stop-color="#FFE600"/>
<stop offset="0.791667" stop-color="white" stop-opacity="0"/>
</linearGradient>
</defs>
</svg>
